<?xml version="1.0" standalone="no"?>
<!DOCTYPE svg PUBLIC "-//W3C//DTD SVG 20010904//EN"
 "http://www.w3.org/TR/2001/REC-SVG-20010904/DTD/svg10.dtd">
<svg version="1.0" xmlns="http://www.w3.org/2000/svg"
 width="420.000000pt" height="420.000000pt" viewBox="0 0 420.000000 420.000000"
 preserveAspectRatio="xMidYMid meet">
<metadata>
Created by potrace 1.11, written by Peter Selinger 2001-2013
</metadata>
<g transform="translate(0.000000,420.000000) scale(0.100000,-0.100000)"
fill="#000000" stroke="none">
<path d="M1853 3602 l-183 -65 0 -1248 c0 -890 3 -1250 11 -1255 6 -4 8 -20 4
-40 -4 -23 -2 -34 6 -34 6 0 9 -8 6 -20 -3 -11 -1 -20 5 -20 6 0 8 -6 5 -14
-3 -8 -3 -17 1 -21 4 -4 8 -11 8 -16 1 -5 2 -10 4 -11 1 -2 3 -11 5 -20 9 -49
142 -208 174 -208 9 0 150 46 313 102 256 89 298 106 298 123 0 17 2 17 10 5
6 -10 7 -2 3 25 -3 22 -7 41 -8 43 -1 1 -26 -9 -56 -22 -112 -51 -224 -52
-301 -1 -39 26 -94 108 -83 125 3 5 1 10 -5 10 -7 0 -9 8 -5 20 3 11 3 20 -2
20 -4 0 -7 583 -5 1295 2 1039 0 1295 -10 1294 -7 -1 -95 -31 -195 -67z"/>
</g>
</svg>
